<svg xmlns="http://www.w3.org/2000/svg" xmlns:xlink="http://www.w3.org/1999/xlink" viewBox="0,0,256,256" width="96px" height="96px"><g fill="none" fill-rule="nonzero" stroke="none" stroke-width="1" stroke-linecap="butt" stroke-linejoin="miter" stroke-miterlimit="10" stroke-dasharray="" stroke-dashoffset="0" font-family="none" font-weight="none" font-size="none" text-anchor="none" style="mix-blend-mode: normal"><g transform="scale(5.33333,5.33333)"><path d="M24,4.05c-11.01808,0 -19.95,8.93192 -19.95,19.95c0,11.01808 8.93192,19.95 19.95,19.95c11.01808,0 19.95,-8.93192 19.95,-19.95c0,-11.01808 -8.93192,-19.95 -19.95,-19.95z" fill="#ffffff"></path><path d="M8.001,24c0,6.336 3.68,11.806 9.018,14.4l-7.634,-20.912c-0.887,1.991 -1.384,4.188 -1.384,6.512zM34.804,23.194c0,-1.977 -1.063,-3.35 -1.67,-4.412c-0.813,-1.329 -1.576,-2.437 -1.576,-3.752c0,-1.465 1.471,-2.84 3.041,-2.84c0.071,0 0.135,0.006 0.206,0.008c-2.844,-2.614 -6.637,-4.198 -10.804,-4.198c-5.389,0 -10.153,2.666 -13.052,6.749c0.228,0.074 0.307,0.039 0.611,0.039c1.669,0 4.264,-0.2 4.264,-0.2c0.86,-0.057 0.965,1.212 0.099,1.316c0,0 -0.864,0.105 -1.828,0.152l5.931,17.778l3.5,-10.501l-2.603,-7.248c-0.861,-0.046 -1.679,-0.152 -1.679,-0.152c-0.862,-0.056 -0.762,-1.375 0.098,-1.316c0,0 2.648,0.2 4.217,0.2c1.675,0 4.264,-0.2 4.264,-0.2c0.861,-0.057 0.965,1.212 0.104,1.316c0,0 -0.87,0.105 -1.832,0.152l5.891,17.61l1.599,-5.326c0.814,-2.08 1.219,-3.8 1.219,-5.175zM24.281,25.396l-4.8,13.952c1.436,0.426 2.95,0.652 4.52,0.652c1.861,0 3.649,-0.324 5.316,-0.907c-0.04,-0.071 -0.085,-0.143 -0.118,-0.22zM38.043,16.318c0.071,0.51 0.108,1.059 0.108,1.645c0,1.628 -0.306,3.451 -1.219,5.737l-4.885,14.135c4.758,-2.772 7.953,-7.933 7.953,-13.835c0,-2.781 -0.711,-5.396 -1.957,-7.682z" fill="#304cfd"></path><path d="M4,24c0,11.024 8.97,20 19.999,20c11.031,0 20.001,-8.976 20.001,-20c0,-11.024 -8.97,-20 -20,-20c-11.03,0 -20,8.976 -20,20zM5.995,24c0,-9.924 8.074,-17.999 18.004,-17.999c9.93,0 18.006,8.075 18.006,17.999c0,9.924 -8.076,18.001 -18.005,18.001c-9.928,0 -18.005,-8.077 -18.005,-18.001z" fill="#304cfd"></path></g></g></svg>